<mxfile host="app.diagrams.net" modified="2023-09-12T15:14:57.570Z" agent="Mozilla/5.0 (Windows NT 10.0; Win64; x64) AppleWebKit/537.36 (KHTML, like Gecko) Chrome/116.0.0.0 Safari/537.36" version="21.6.9" etag="ZaJc33P7OXG8QVsfpjeq" type="github">
  <diagram name="Page-1" id="h0uXSiI79quHJpR1VLWy">
    <mxGraphModel>
      <root>
        <mxCell id="0" />
        <mxCell id="1" parent="0" />
      </root>
    </mxGraphModel>
  </diagram>
</mxfile>
